<svg width="62" height="62" viewBox="0 0 62 62" fill="none" xmlns="http://www.w3.org/2000/svg">
<circle cx="30" cy="30" r="30" fill="#5A86F0" fill-opacity="0.3"/>
<mask id="path-2-outside-1_856_6383" maskUnits="userSpaceOnUse" x="27" y="21" width="35" height="41" fill="black">
<rect fill="white" x="27" y="21" width="35" height="41"/>
<path d="M59.4488 24.2758C60.3036 28.6731 60.1627 33.2061 59.0365 37.5418C57.9104 41.8776 55.8275 45.9062 52.9409 49.3317C50.0542 52.7573 46.4371 55.4929 42.3549 57.3378C38.2728 59.1827 33.8294 60.0899 29.3508 59.993L30 30L59.4488 24.2758Z"/>
</mask>
<path d="M59.4488 24.2758C60.3036 28.6731 60.1627 33.2061 59.0365 37.5418C57.9104 41.8776 55.8275 45.9062 52.9409 49.3317C50.0542 52.7573 46.4371 55.4929 42.3549 57.3378C38.2728 59.1827 33.8294 60.0899 29.3508 59.993L30 30L59.4488 24.2758Z" fill="#5A86F0"/>
<path d="M59.4488 24.2758C60.3036 28.6731 60.1627 33.2061 59.0365 37.5418C57.9104 41.8776 55.8275 45.9062 52.9409 49.3317C50.0542 52.7573 46.4371 55.4929 42.3549 57.3378C38.2728 59.1827 33.8294 60.0899 29.3508 59.993L30 30L59.4488 24.2758Z" stroke="#F1F1F5" stroke-width="4" mask="url(#path-2-outside-1_856_6383)"/>
</svg>
