<svg width="61" height="60" viewBox="0 0 61 60" fill="none" xmlns="http://www.w3.org/2000/svg">
<path fill-rule="evenodd" clip-rule="evenodd" d="M30.4162 0C13.8486 0 0.417969 13.4307 0.417969 29.9982C0.417969 46.5658 13.8486 59.9965 30.4162 59.9965C46.9838 59.9965 60.4144 46.5658 60.4144 29.9982C60.4144 13.4307 46.9838 0 30.4162 0ZM57.5717 35.426C56.3032 41.7245 52.9192 47.3559 47.9594 51.4203C44.0091 54.6551 39.3653 56.6961 34.3309 57.4203C32.8605 57.631 32.1012 57.6837 30.3806 57.6837C28.6644 57.6837 27.9139 57.631 26.4303 57.4203C22.3922 56.8498 18.521 55.3794 15.1062 53.1233C9.60648 49.4891 5.54646 43.9806 3.73811 37.6953C3.0534 35.3163 2.72421 33.1524 2.65837 30.5847C2.62764 29.4304 2.6847 28.592 2.86466 27.5562C3.74689 22.4647 7.31531 18.3257 12.1873 16.7412C13.5875 16.2891 14.8516 16.0916 16.379 16.0872C18.6307 16.0828 20.6014 16.5437 22.5766 17.5312C26.8034 19.6512 29.6695 23.8297 30.1128 28.5218C30.1392 28.7983 30.1787 29.5313 30.205 30.1458C30.227 30.7603 30.2752 31.4889 30.3148 31.761C30.7405 34.9739 32.2021 37.8928 34.5108 40.1313C36.7449 42.2951 39.418 43.5812 42.6265 44.0245C43.2805 44.1123 45.5365 44.0991 46.2037 44.0025C49.0128 43.5856 51.3434 42.5453 53.4678 40.7633C55.2103 39.3017 56.5841 37.388 57.4664 35.1978C57.6068 34.8467 57.7253 34.5833 57.7253 34.614C57.7253 34.6448 57.6551 35.0091 57.5717 35.426ZM48.7757 31.0675C48.6133 31.682 48.4641 32.0156 48.1218 32.5335C47.6302 33.2797 46.9586 33.8284 46.0939 34.1927C45.6111 34.399 45.2951 34.478 44.7552 34.5306C43.3595 34.6579 42.0383 34.1707 41.0639 33.1656C40.1071 32.1824 39.6681 30.9534 39.7823 29.5577C39.9315 27.6747 41.2922 26.0726 43.1751 25.5503C43.5702 25.4406 43.6843 25.4274 44.3163 25.4318C44.8869 25.4318 45.0888 25.4494 45.3917 25.524C47.121 25.9629 48.4378 27.3148 48.8109 29.0485C48.9294 29.5928 48.9118 30.5584 48.7757 31.0675ZM20.7637 29.2854C20.1272 26.2524 16.7607 24.624 13.9867 26.011C13.5259 26.2393 13.1923 26.4807 12.7929 26.8669C11.1425 28.4646 10.8748 30.9752 12.1476 32.9109C12.4373 33.3542 13.0255 33.9379 13.4907 34.2452C14.8821 35.1625 16.7256 35.281 18.2004 34.5436C19.583 33.8589 20.5354 32.5817 20.8076 31.0498C20.8822 30.6329 20.8602 29.7418 20.7637 29.2854Z" fill="#5A86F0"/>
</svg>
