<svg width="198" height="177" viewBox="0 0 198 177" fill="none" xmlns="http://www.w3.org/2000/svg">
<path opacity="0.2" fill-rule="evenodd" clip-rule="evenodd" d="M76.0375 -12.9976C99.0698 -27.0716 124.415 -34.1151 151.688 -33.9986C154.958 -33.9991 167.588 -32.9029 171.4 -32.3064C203.755 -27.1878 232.319 -12.1179 256 12.4002C259.17 15.67 266.053 23.8308 269.024 27.8306C289.823 55.8036 301.248 88.7971 302.738 125.035C303.007 131.657 302.32 146.845 301.462 153.242C300.254 162.152 298.514 170.747 296.341 178.444C283.574 223.903 253.131 260.86 212.864 279.771C194.509 288.429 177.332 292.501 155.848 293.309C151.646 293.456 135.883 292.472 131.979 291.818C111.305 288.325 96.8465 283.122 79.0188 272.767C70.3124 267.718 59.5478 259.442 51.3264 251.531C23.168 224.352 4.98845 186.662 0.968998 147.143C-0.0939026 136.581 -0.221015 131.53 0.290295 120.222C0.694264 111.287 0.937081 108.538 1.95423 101.767C6.41322 71.8131 19.011 43.2129 37.6682 20.546C48.7003 7.18152 61.8032 -4.28731 76.0375 -12.9976ZM271.513 34.6417C250.933 4.42968 221.502 -17.1453 187.923 -26.6409C185.7 -27.2662 183.757 -27.7971 183.591 -27.8075C183.426 -27.8178 184.813 -27.04 186.666 -26.1051C198.227 -20.2376 208.17 -11.6041 215.581 -0.978489C224.617 11.9757 229.605 25.8802 231.112 42.3574C231.456 46.2699 230.934 59.3949 230.289 63.1689C227.059 81.6796 219.431 96.7927 207.193 109.058C194.533 121.732 178.433 129.251 161.022 130.646C159.547 130.784 155.611 130.82 152.297 130.741C148.981 130.687 145.024 130.671 143.528 130.731C118.148 131.731 94.8964 146.994 82.3703 170.863C76.5336 182.018 73.5339 193.324 72.9655 206.421C72.5874 215.306 73.3185 222.724 75.3845 231.019C82.6347 259.886 103.982 282.031 131.164 288.875C136.694 290.27 141.193 290.883 147.416 291.093C161.258 291.574 172.996 290.387 185.985 287.205C220.302 278.802 251.029 257.043 272.043 226.28C285.088 207.18 294.023 185.16 298.157 161.867C299.682 153.31 300.163 148.963 300.614 138.982C301.066 128.976 300.982 124.542 300.235 115.92C297.659 86.397 287.891 58.7035 271.513 34.6417ZM169.864 27.3448C167.165 25.1795 165.409 24.1994 162.143 23.0483C159.437 22.0857 154.243 21.6588 151.281 22.165C141.848 23.7516 134.223 30.9549 131.405 40.8647C130.923 42.6009 130.776 43.7693 130.626 47.0877C130.436 50.762 130.477 51.4302 130.964 53.7645C133.281 64.891 141.549 73.3431 151.648 74.8443C159.133 75.9774 165.866 73.8381 171.411 68.604C177.079 63.2752 180.05 55.7556 179.732 47.5953C179.59 44.4379 179.248 42.5734 178.264 39.6961C176.53 34.5448 173.752 30.4547 169.864 27.3448ZM125.491 224.09C118.752 207.491 128.405 188.46 144.903 185.779C147.386 185.371 152.189 185.543 154.415 186.117C162.591 188.215 169.217 194.184 172.541 202.455C176.123 211.28 175 221.961 169.695 229.744C167.918 232.347 164.621 235.571 162.158 237.107C151.401 243.858 137.953 241.457 129.785 231.321C127.811 228.869 126.599 226.847 125.491 224.09Z" fill="white"/>
</svg>
