<svg width="312" height="250" viewBox="0 0 312 250" fill="none" xmlns="http://www.w3.org/2000/svg">
<path opacity="0.2" fill-rule="evenodd" clip-rule="evenodd" d="M116.059 -8.94323C151.214 -30.4249 189.899 -41.1757 231.527 -40.9978C236.519 -40.9986 255.796 -39.3255 261.615 -38.415C311 -30.6023 354.597 -7.60044 390.743 29.8224C395.581 34.8133 406.087 47.2694 410.622 53.3744C442.369 96.0708 459.806 146.43 462.08 201.742C462.491 211.848 461.443 235.031 460.134 244.795C458.289 258.394 455.634 271.513 452.317 283.262C432.829 352.648 386.364 409.057 324.903 437.921C296.886 451.136 270.669 457.351 237.876 458.585C231.464 458.81 207.404 457.307 201.444 456.309C169.889 450.978 147.821 443.035 120.609 427.23C107.321 419.523 90.8902 406.893 78.3415 394.817C35.3623 353.333 7.61407 295.805 1.47902 235.485C-0.143327 219.364 -0.337344 211.655 0.443089 194.395C1.05968 180.758 1.4303 176.561 2.98282 166.226C9.78874 120.507 29.0172 76.853 57.4945 42.2557C74.3331 21.857 94.3327 4.35165 116.059 -8.94323ZM414.42 63.7705C383.009 17.6567 338.088 -15.274 286.834 -29.7675C283.441 -30.7219 280.475 -31.5323 280.223 -31.5481C279.97 -31.5639 282.087 -30.3767 284.916 -28.9496C302.562 -19.9939 317.738 -6.81628 329.05 9.40203C342.842 29.1745 350.456 50.3975 352.755 75.5473C353.281 81.5191 352.484 101.552 351.5 107.313C346.569 135.566 334.927 158.634 316.247 177.355C296.924 196.7 272.35 208.176 245.774 210.306C243.522 210.517 237.515 210.571 232.456 210.451C227.396 210.369 221.356 210.343 219.073 210.435C180.334 211.962 144.844 235.259 125.725 271.691C116.816 288.717 112.238 305.974 111.37 325.964C110.793 339.525 111.909 350.848 115.062 363.509C126.129 407.57 158.712 441.371 200.2 451.816C208.641 453.946 215.508 454.882 225.007 455.202C246.135 455.936 264.05 454.125 283.876 449.268C336.256 436.442 383.155 403.23 415.23 356.276C435.141 327.122 448.779 293.512 455.089 257.96C457.416 244.899 458.15 238.263 458.839 223.029C459.529 207.756 459.401 200.989 458.26 187.828C454.329 142.767 439.42 100.497 414.42 63.7705ZM259.27 52.633C255.151 49.3281 252.47 47.8321 247.485 46.0751C243.355 44.6058 235.427 43.9543 230.906 44.7268C216.508 47.1486 204.87 58.1432 200.568 73.269C199.834 75.919 199.608 77.7023 199.379 82.7674C199.09 88.3757 199.152 89.3954 199.895 92.9583C203.432 109.941 216.052 122.842 231.467 125.133C242.892 126.863 253.168 123.598 261.632 115.609C270.283 107.475 274.817 95.9975 274.332 83.5422C274.115 78.7228 273.593 75.877 272.091 71.4852C269.444 63.6227 265.205 57.3798 259.27 52.633ZM191.563 352.933C181.278 327.597 196.012 298.55 221.192 294.457C224.983 293.834 232.314 294.097 235.711 294.973C248.19 298.175 258.305 307.286 263.377 319.91C268.845 333.38 267.131 349.683 259.034 361.563C256.322 365.535 251.289 370.457 247.529 372.801C231.111 383.106 210.586 379.44 198.118 363.97C195.104 360.227 193.254 357.142 191.563 352.933Z" fill="white"/>
</svg>
