<svg width="223" height="231" viewBox="0 0 223 231" fill="none" xmlns="http://www.w3.org/2000/svg">
<path opacity="0.2" fill-rule="evenodd" clip-rule="evenodd" d="M87.0215 24.0363C113.381 7.92922 142.387 -0.131744 173.6 0.00162817C177.342 0.00107029 191.797 1.25553 196.16 1.93823C233.189 7.7962 265.878 25.0431 292.98 53.1029C296.608 56.8451 304.486 66.1847 307.886 70.7623C331.69 102.776 344.764 140.536 346.469 182.009C346.778 189.587 345.992 206.969 345.01 214.29C343.627 224.487 341.636 234.323 339.149 243.133C324.537 295.159 289.697 337.454 243.614 359.097C222.606 369.005 202.949 373.666 178.361 374.591C173.552 374.759 155.512 373.632 151.044 372.884C127.383 368.887 110.836 362.931 90.4334 351.081C80.4693 345.302 68.1498 335.832 58.7407 326.777C26.5148 295.673 5.70906 252.538 1.10897 207.309C-0.107467 195.222 -0.252942 189.441 0.332229 176.5C0.794554 166.275 1.07245 163.128 2.23653 155.379C7.33963 121.098 21.7572 88.3666 43.1096 62.4255C55.7352 47.1304 70.731 34.0048 87.0215 24.0363ZM310.734 78.5573C287.182 43.981 253.499 19.2894 215.069 8.42213C212.525 7.70656 210.301 7.09891 210.112 7.08708C209.923 7.07526 211.51 7.9654 213.631 9.03541C226.862 15.7505 238.241 25.6311 246.723 37.7916C257.064 52.6171 262.773 68.5301 264.497 87.3876C264.891 91.8653 264.293 106.886 263.556 111.205C259.858 132.39 251.129 149.686 237.123 163.723C222.635 178.228 204.209 186.833 184.283 188.43C182.594 188.588 178.09 188.629 174.296 188.539C170.502 188.477 165.973 188.458 164.262 188.527C135.215 189.671 108.605 207.14 94.2691 234.457C87.5892 247.223 84.1562 260.163 83.5057 275.151C83.073 285.319 83.9097 293.809 86.2741 303.302C94.5716 336.339 119.003 361.684 150.111 369.515C156.44 371.112 161.589 371.814 168.711 372.054C184.553 372.604 197.986 371.246 212.851 367.605C252.126 357.988 287.291 333.085 311.341 297.879C326.27 276.019 336.496 250.818 341.227 224.161C342.972 214.368 343.522 209.393 344.039 197.97C344.557 186.518 344.461 181.444 343.605 171.576C340.657 137.789 329.478 106.095 310.734 78.5573ZM194.402 70.2064C191.313 67.7283 189.303 66.6066 185.565 65.2892C182.469 64.1876 176.524 63.699 173.134 64.2783C162.339 66.0941 153.612 74.3379 150.387 85.6793C149.836 87.6663 149.667 89.0034 149.495 92.8012C149.278 97.0063 149.325 97.771 149.882 100.442C152.534 113.176 161.996 122.849 173.555 124.567C182.121 125.864 189.826 123.416 196.172 117.426C202.659 111.327 206.059 102.721 205.695 93.3822C205.533 89.7686 205.141 87.6348 204.015 84.3418C202.03 78.4465 198.852 73.7655 194.402 70.2064ZM143.628 295.373C135.917 276.376 146.964 254.596 165.844 251.527C168.686 251.06 174.183 251.257 176.73 251.914C186.088 254.315 193.671 261.146 197.475 270.612C201.575 280.712 200.29 292.936 194.218 301.844C192.185 304.822 188.411 308.512 185.592 310.269C173.281 317.996 157.891 315.248 148.543 303.649C146.283 300.841 144.896 298.528 143.628 295.373Z" fill="white"/>
</svg>
