<svg width="584" height="469" viewBox="0 0 584 469" fill="none" xmlns="http://www.w3.org/2000/svg">
<path fill-rule="evenodd" clip-rule="evenodd" d="M316.5 487C491.298 487 633 345.298 633 170.5C633 -4.29807 491.298 -146 316.5 -146C141.702 -146 6.10352e-05 -4.2981 6.10352e-05 170.5C6.10352e-05 345.298 141.702 487 316.5 487ZM11.4445 109.537C25.6931 38.7863 63.7059 -24.4698 119.419 -70.1246C163.792 -106.461 215.954 -129.387 272.505 -137.522C289.022 -139.889 297.551 -140.48 316.878 -140.48C336.156 -140.48 344.587 -139.889 361.251 -137.522C406.61 -131.113 450.096 -114.596 488.454 -89.2543C550.231 -48.4312 595.836 13.4444 616.149 84.0468C623.841 110.769 627.538 135.076 628.278 163.918C628.623 176.885 627.982 186.302 625.961 197.937C616.051 255.129 575.967 301.622 521.24 319.421C505.513 324.499 491.313 326.718 474.156 326.767C448.863 326.816 426.726 321.639 404.54 310.546C357.061 286.733 324.865 239.796 319.886 187.091C319.59 183.985 319.146 175.751 318.85 168.848C318.604 161.946 318.062 153.762 317.618 150.705C312.835 114.615 296.417 81.8281 270.484 56.6834C245.389 32.3769 215.363 17.931 179.322 12.9514C171.976 11.9653 146.634 12.1133 139.14 13.1979C107.586 17.8817 81.4058 29.5666 57.543 49.5838C37.9697 66.0018 22.5377 87.498 12.6277 112.1C11.05 116.045 9.71887 119.003 9.71887 118.658C9.71887 118.313 10.5077 114.22 11.4445 109.537ZM110.248 158.495C112.072 151.592 113.749 147.845 117.594 142.027C123.116 133.646 130.66 127.483 140.373 123.391C145.796 121.074 149.346 120.186 155.41 119.594C171.089 118.165 185.929 123.637 196.874 134.928C207.622 145.972 212.553 159.777 211.271 175.455C209.594 196.606 194.31 214.602 173.159 220.469C168.722 221.702 167.44 221.85 160.34 221.8C153.931 221.8 151.663 221.603 148.261 220.765C128.836 215.835 114.045 200.649 109.854 181.174C108.523 175.061 108.72 164.214 110.248 158.495ZM424.902 178.513C432.051 212.581 469.866 230.873 501.026 215.293C506.203 212.729 509.95 210.018 514.437 205.679C532.975 187.733 535.982 159.531 521.684 137.788C518.43 132.809 511.824 126.251 506.597 122.8C490.968 112.496 470.261 111.165 453.695 119.447C438.164 127.139 427.466 141.486 424.409 158.693C423.571 163.377 423.817 173.385 424.902 178.513Z" fill="#F1F1F5"/>
</svg>
