<svg width="343" height="197" viewBox="0 0 343 197" fill="none" xmlns="http://www.w3.org/2000/svg">
<path fill-rule="evenodd" clip-rule="evenodd" d="M175.098 328.117C293.043 328.117 388.656 232.504 388.656 114.559C388.656 -3.38663 293.043 -99.0001 175.098 -99.0001C57.1524 -99.0001 -38.461 -3.38663 -38.461 114.559C-38.461 232.504 57.1524 328.117 175.098 328.117ZM-30.1096 73.5493C-20.5247 25.9568 5.04584 -16.5945 42.5228 -47.3057C72.3717 -71.7487 107.461 -87.1706 145.502 -92.6429C156.612 -94.2349 162.35 -94.6328 175.35 -94.6328C188.318 -94.6328 193.989 -94.2349 205.199 -92.6429C235.712 -88.3314 264.964 -77.221 290.766 -60.1739C332.323 -32.7129 363.001 8.90976 376.665 56.4027C381.839 74.3784 384.326 90.729 384.823 110.131C385.056 118.853 384.624 125.188 383.265 133.015C376.598 171.487 349.635 202.762 312.821 214.735C302.241 218.151 292.69 219.643 281.148 219.676C264.134 219.71 249.243 216.227 234.319 208.765C202.38 192.746 180.723 161.172 177.374 125.719C177.175 123.629 176.876 118.09 176.677 113.447C176.511 108.804 176.146 103.299 175.848 101.242C172.631 76.9653 161.587 54.9103 144.142 37.9959C127.261 21.6453 107.063 11.9278 82.8188 8.57809C77.8772 7.91479 60.8301 8.01428 55.789 8.74393C34.5631 11.8947 16.9522 19.7549 0.900146 33.2201C-12.2665 44.2642 -22.6473 58.7243 -29.3136 75.2739C-30.3749 77.9271 -31.2704 79.917 -31.2704 79.6849C-31.2704 79.4527 -30.7397 76.7 -30.1096 73.5493ZM36.354 106.483C37.5811 101.839 38.7088 99.3188 41.2957 95.4053C45.0102 89.7672 50.0845 85.6215 56.6181 82.8688C60.2663 81.31 62.6542 80.713 66.7336 80.315C77.2802 79.3532 87.263 83.0346 94.6257 90.6295C101.856 98.0585 105.172 107.345 104.31 117.891C103.182 132.119 92.9011 144.225 78.6732 148.172C75.6883 149.001 74.826 149.1 70.0501 149.067C65.7386 149.067 64.213 148.934 61.9246 148.371C48.8574 145.054 38.9078 134.839 36.0887 121.739C35.1932 117.626 35.3259 110.33 36.354 106.483ZM248.014 119.949C252.823 142.866 278.261 155.17 299.221 144.69C302.704 142.965 305.224 141.141 308.242 138.223C320.713 126.151 322.736 107.18 313.118 92.554C310.929 89.2043 306.485 84.7932 302.969 82.4716C292.456 75.5401 278.526 74.6446 267.383 80.2164C256.936 85.3902 249.739 95.0414 247.682 106.616C247.119 109.767 247.284 116.499 248.014 119.949Z" fill="#F1F1F5"/>
</svg>
