<svg width="90" height="90" viewBox="0 0 90 90" fill="none" xmlns="http://www.w3.org/2000/svg">
<ellipse cx="45.1065" cy="44.9124" rx="39.5049" ry="39.555" fill="#5A86F0"/>
<path fill-rule="evenodd" clip-rule="evenodd" d="M36.0174 5.88999L34.0688 6.99856C32.5259 7.37879 30.9919 7.88249 29.478 8.51025C28.2536 9.01788 26.9973 9.68061 25.7608 10.4573L25.5426 10.1416L18.3329 14.4927L11.9134 22.107L6.5802 32.9847L5 41.9834L5 50.1911L8.06163 61.3654L13.8886 70.3641L19.3205 75.6052L19.9634 75.4391L19.7109 75.9025L29.3896 81.9346L41.4386 85.0002L55.4629 83.7146L68.1045 77.9791L77.6844 68.1893L82.2275 59.3883L83.7089 54.2461L84.6965 48.6095L84.46 48.0682C84.5491 47.195 84.5892 46.2817 84.5827 45.3461H85.0035L84.6085 38.0284L80.5592 25.5686L71.9669 14.9876L61.2018 8.06551L48.8565 5L36.0174 5.88999ZM23.4609 38.2268C24.0755 37.6296 24.8072 37.0631 25.7695 36.4047C27.637 35.1269 28.1034 34.9005 29.8375 34.4303C32.2186 33.7848 35.0444 33.7095 37.1756 34.2351C38.0491 34.4507 39.7536 35.1177 40.9637 35.7179C44.6917 37.5664 48.5046 38.0955 51.9526 37.243C56.4576 36.1288 59.9741 33.1303 61.791 29.0148C61.9439 29.7376 62.0428 30.539 62.1167 31.5125C62.2882 33.7707 62.2508 34.2884 61.7905 36.0271C61.1582 38.4145 59.8104 40.9025 58.2902 42.4877C57.667 43.1374 56.2378 44.2819 55.1137 45.0311C51.6508 47.3395 49.2867 50.3812 48.3001 53.7973C46.9317 58.5362 47.9577 63.371 51.0092 67.1044C49.8993 66.8926 48.8356 66.4911 47.4161 65.8085C45.3772 64.8281 44.9482 64.5368 43.6745 63.2683C41.9256 61.5263 40.4476 59.1136 39.8366 57.0028C39.5862 56.1376 39.3109 54.326 39.225 52.9767C38.9598 48.8198 37.511 45.249 35.0496 42.6854C31.9409 39.448 27.7711 37.8916 23.4609 38.2268ZM47.4431 18.184C46.5485 18.3401 45.6884 18.7452 44.9846 19.4195C44.0719 20.294 43.4533 22.1141 43.6282 23.4113C44.1915 27.5899 49.4049 29.1318 52.0433 25.9C53.2793 24.3857 53.4919 22.4304 52.6114 20.6776C51.9844 19.4298 50.8548 18.6093 49.5928 18.2771C48.8869 18.1947 48.1689 18.1631 47.4431 18.184ZM23.1177 57.6393C24.3303 57.9934 26.2139 57.6198 27.2484 56.8195C30.581 54.2417 29.3079 48.9501 25.1934 48.2783C23.2657 47.9636 21.4681 48.757 20.3924 50.3968C18.6748 53.0156 20.0807 56.7523 23.1177 57.6393ZM67.2002 56.6669C66.9002 55.4383 65.6352 53.9918 64.4258 53.4948C60.5299 51.894 56.5895 55.6437 58.0657 59.5474C58.7573 61.3764 60.3423 62.5384 62.2986 62.6512C65.4224 62.8312 67.9514 59.7438 67.2002 56.6669Z" fill="#050625"/>
<path d="M34.0688 6.99856L34.3081 7.96951L34.4427 7.93632L34.5633 7.86774L34.0688 6.99856ZM36.0174 5.88999L35.9483 4.89238L35.721 4.90814L35.5229 5.0208L36.0174 5.88999ZM29.478 8.51025L29.861 9.434L29.861 9.43399L29.478 8.51025ZM25.7608 10.4573L24.9383 11.026L25.4825 11.813L26.2927 11.3041L25.7608 10.4573ZM25.5426 10.1416L26.3651 9.57288L25.8306 8.79979L25.0259 9.28543L25.5426 10.1416ZM18.3329 14.4927L17.8162 13.6365L17.6748 13.7218L17.5684 13.8481L18.3329 14.4927ZM11.9134 22.107L11.1488 21.4624L11.0696 21.5564L11.0155 21.6668L11.9134 22.107ZM6.5802 32.9847L5.68231 32.5444L5.61982 32.6719L5.59527 32.8117L6.5802 32.9847ZM5 41.9834L4.01507 41.8105L4 41.8963V41.9834H5ZM5 50.1911H4V50.3256L4.03555 50.4553L5 50.1911ZM8.06163 61.3654L7.09718 61.6296L7.13809 61.7789L7.22224 61.9089L8.06163 61.3654ZM13.8886 70.3641L13.0492 70.9077L13.1116 71.0041L13.1943 71.0838L13.8886 70.3641ZM19.3205 75.6052L18.6262 76.3248L19.0289 76.7134L19.5707 76.5734L19.3205 75.6052ZM19.9634 75.4391L20.8416 75.9174L21.9435 73.8946L19.7132 74.4709L19.9634 75.4391ZM19.7109 75.9025L18.8328 75.4241L18.3816 76.2523L19.182 76.7512L19.7109 75.9025ZM29.3896 81.9346L28.8607 82.7833L28.9925 82.8655L29.1431 82.9038L29.3896 81.9346ZM41.4386 85.0002L41.1921 85.9693L41.3587 86.0117L41.5299 85.996L41.4386 85.0002ZM55.4629 83.7146L55.5542 84.7104L55.7223 84.695L55.8761 84.6253L55.4629 83.7146ZM68.1045 77.9791L68.5176 78.8898L68.6882 78.8124L68.8192 78.6785L68.1045 77.9791ZM77.6844 68.1893L78.3991 68.8887L78.5041 68.7814L78.573 68.648L77.6844 68.1893ZM82.2275 59.3883L83.1161 59.847L83.1612 59.7596L83.1884 59.6651L82.2275 59.3883ZM83.7089 54.2461L84.6698 54.523L84.6847 54.4715L84.6939 54.4187L83.7089 54.2461ZM84.6965 48.6095L85.6815 48.7821L85.7335 48.4853L85.6129 48.2091L84.6965 48.6095ZM84.46 48.0682L83.4652 47.9667L83.4385 48.2279L83.5437 48.4686L84.46 48.0682ZM84.5827 45.3461V44.3461H83.5758L83.5828 45.353L84.5827 45.3461ZM85.0035 45.3461V46.3461H86.059L86.0021 45.2922L85.0035 45.3461ZM84.6085 38.0284L85.607 37.9745L85.6 37.8438L85.5595 37.7194L84.6085 38.0284ZM80.5592 25.5686L81.5103 25.2595L81.4528 25.0826L81.3355 24.9382L80.5592 25.5686ZM71.9669 14.9876L72.7432 14.3573L72.6423 14.2331L72.5078 14.1465L71.9669 14.9876ZM61.2018 8.06551L61.7427 7.2244L61.6034 7.13488L61.4428 7.09499L61.2018 8.06551ZM48.8565 5L49.0975 4.02947L48.9446 3.9915L48.7874 4.00239L48.8565 5ZM25.7695 36.4047L25.2049 35.5794L25.2049 35.5794L25.7695 36.4047ZM23.4609 38.2268L22.7639 37.5097L20.7792 39.4384L23.5384 39.2238L23.4609 38.2268ZM29.8375 34.4303L29.5758 33.4651L29.5757 33.4652L29.8375 34.4303ZM37.1756 34.2351L37.4151 33.2643L37.415 33.2642L37.1756 34.2351ZM40.9637 35.7179L40.5193 36.6138L40.5194 36.6138L40.9637 35.7179ZM51.9526 37.243L52.1926 38.2137L52.1927 38.2137L51.9526 37.243ZM61.791 29.0148L62.7694 28.8079L62.1279 25.7755L60.8762 28.611L61.791 29.0148ZM62.1167 31.5125L63.1139 31.4368V31.4368L62.1167 31.5125ZM61.7905 36.0271L62.7571 36.283L62.7571 36.283L61.7905 36.0271ZM58.2902 42.4877L59.0119 43.1799L59.0119 43.1799L58.2902 42.4877ZM55.1137 45.0311L54.5591 44.1989L54.559 44.199L55.1137 45.0311ZM48.3001 53.7973L47.3394 53.5198L47.3394 53.5199L48.3001 53.7973ZM51.0092 67.1044L50.8217 68.0867L53.5252 68.6026L51.7834 66.4715L51.0092 67.1044ZM47.4161 65.8085L46.9827 66.7097H46.9827L47.4161 65.8085ZM43.6745 63.2683L42.9687 63.9768L42.9688 63.9769L43.6745 63.2683ZM39.8366 57.0028L38.876 57.2808L38.876 57.2809L39.8366 57.0028ZM39.225 52.9767L40.223 52.9132L40.223 52.913L39.225 52.9767ZM35.0496 42.6854L35.771 41.9928L35.7709 41.9928L35.0496 42.6854ZM44.9846 19.4195L44.2927 18.6974L44.2927 18.6975L44.9846 19.4195ZM47.4431 18.184L47.4143 17.1844L47.3423 17.1865L47.2713 17.1989L47.4431 18.184ZM43.6282 23.4113L42.6372 23.5449V23.5449L43.6282 23.4113ZM52.0433 25.9L52.8179 26.5324L52.8179 26.5324L52.0433 25.9ZM52.6114 20.6776L53.505 20.2287L53.5049 20.2287L52.6114 20.6776ZM49.5928 18.2771L49.8473 17.3101L49.779 17.2921L49.7088 17.2839L49.5928 18.2771ZM27.2484 56.8195L27.8603 57.6105L27.8603 57.6105L27.2484 56.8195ZM23.1177 57.6393L22.8373 58.5992L22.8373 58.5992L23.1177 57.6393ZM25.1934 48.2783L25.3546 47.2914L25.3546 47.2914L25.1934 48.2783ZM20.3924 50.3968L19.5563 49.8483L19.5562 49.8484L20.3924 50.3968ZM64.4258 53.4948L64.8058 52.5699L64.8058 52.5699L64.4258 53.4948ZM67.2002 56.6669L68.1716 56.4297L68.1716 56.4296L67.2002 56.6669ZM58.0657 59.5474L57.1303 59.9011L57.1303 59.9011L58.0657 59.5474ZM62.2986 62.6512L62.241 63.6496L62.241 63.6496L62.2986 62.6512ZM34.5633 7.86774L36.5119 6.75918L35.5229 5.0208L33.5743 6.12937L34.5633 7.86774ZM29.861 9.43399C31.329 8.82529 32.8149 8.33748 34.3081 7.96951L33.8295 6.02761C32.2369 6.4201 30.6549 6.93969 29.095 7.58651L29.861 9.43399ZM26.2927 11.3041C27.4892 10.5525 28.6958 9.91709 29.861 9.434L29.095 7.5865C27.8114 8.11868 26.5054 8.80869 25.2289 9.61047L26.2927 11.3041ZM24.72 10.7103L24.9383 11.026L26.5834 9.88856L26.3651 9.57288L24.72 10.7103ZM18.8496 15.3488L26.0593 10.9978L25.0259 9.28543L17.8162 13.6365L18.8496 15.3488ZM12.6779 22.7516L19.0975 15.1372L17.5684 13.8481L11.1488 21.4624L12.6779 22.7516ZM7.47809 33.4249L12.8112 22.5472L11.0155 21.6668L5.68231 32.5444L7.47809 33.4249ZM5.98493 42.1564L7.56513 33.1576L5.59527 32.8117L4.01507 41.8105L5.98493 42.1564ZM6 50.1911L6 41.9834H4L4 50.1911H6ZM9.02609 61.1011L5.96445 49.9268L4.03555 50.4553L7.09718 61.6296L9.02609 61.1011ZM14.728 69.8206L8.90102 60.8218L7.22224 61.9089L13.0492 70.9077L14.728 69.8206ZM20.0149 74.8855L14.583 69.6445L13.1943 71.0838L18.6262 76.3248L20.0149 74.8855ZM19.7132 74.4709L19.0704 74.637L19.5707 76.5734L20.2136 76.4073L19.7132 74.4709ZM20.5891 76.3809L20.8416 75.9174L19.0852 74.9607L18.8328 75.4241L20.5891 76.3809ZM29.9186 81.086L20.2399 75.0538L19.182 76.7512L28.8607 82.7833L29.9186 81.086ZM41.6852 84.031L29.6362 80.9655L29.1431 82.9038L41.1921 85.9693L41.6852 84.031ZM55.3716 82.7188L41.3474 84.0043L41.5299 85.996L55.5542 84.7104L55.3716 82.7188ZM67.6913 77.0685L55.0497 82.804L55.8761 84.6253L68.5176 78.8898L67.6913 77.0685ZM76.9697 67.4899L67.3897 77.2797L68.8192 78.6785L78.3991 68.8887L76.9697 67.4899ZM81.3389 58.9296L76.7958 67.7306L78.573 68.648L83.1161 59.847L81.3389 58.9296ZM82.748 53.9693L81.2666 59.1114L83.1884 59.6651L84.6698 54.523L82.748 53.9693ZM83.7115 48.437L82.7239 54.0735L84.6939 54.4187L85.6815 48.7821L83.7115 48.437ZM83.5437 48.4686L83.7802 49.0099L85.6129 48.2091L85.3763 47.6678L83.5437 48.4686ZM83.5828 45.353C83.589 46.256 83.5503 47.1329 83.4652 47.9667L85.4548 48.1698C85.548 47.257 85.5894 46.3073 85.5827 45.3392L83.5828 45.353ZM85.0035 44.3461H84.5827V46.3461H85.0035V44.3461ZM83.6099 38.0823L84.005 45.4L86.0021 45.2922L85.607 37.9745L83.6099 38.0823ZM79.6082 25.8777L83.6574 38.3375L85.5595 37.7194L81.5103 25.2595L79.6082 25.8777ZM71.1906 15.618L79.7829 26.199L81.3355 24.9382L72.7432 14.3573L71.1906 15.618ZM60.661 8.90663L71.426 15.8288L72.5078 14.1465L61.7427 7.2244L60.661 8.90663ZM48.6155 5.97053L60.9608 9.03604L61.4428 7.09499L49.0975 4.02947L48.6155 5.97053ZM36.0866 6.88759L48.9257 5.99761L48.7874 4.00239L35.9483 4.89238L36.0866 6.88759ZM25.2049 35.5794C24.2196 36.2535 23.4361 36.8565 22.7639 37.5097L24.1578 38.944C24.7148 38.4027 25.3948 37.8728 26.3342 37.23L25.2049 35.5794ZM29.5757 33.4652C28.6964 33.7036 28.0715 33.8973 27.4169 34.215C26.7752 34.5265 26.1359 34.9423 25.2049 35.5794L26.3342 37.23C27.2706 36.5893 27.7983 36.2531 28.2902 36.0143C28.7691 35.7818 29.2445 35.6272 30.0992 35.3955L29.5757 33.4652ZM37.415 33.2642C35.0994 32.6931 32.1001 32.7809 29.5758 33.4651L30.0991 35.3955C32.3371 34.7888 34.9894 34.7259 36.9361 35.206L37.415 33.2642ZM41.408 34.822C40.1616 34.2038 38.3852 33.5036 37.4151 33.2643L36.936 35.206C37.7131 35.3978 39.3457 36.0316 40.5193 36.6138L41.408 34.822ZM51.7126 36.2722C48.5327 37.0585 44.9622 36.5843 41.4079 34.822L40.5194 36.6138C44.4213 38.5485 48.4766 39.1326 52.1926 38.2137L51.7126 36.2722ZM60.8762 28.611C59.1842 32.4436 55.9166 35.2325 51.7125 36.2722L52.1927 38.2137C56.9986 37.0252 60.7641 33.817 62.7058 29.4187L60.8762 28.611ZM63.1139 31.4368C63.0382 30.4399 62.9349 29.5904 62.7694 28.8079L60.8127 29.2218C60.9529 29.8848 61.0475 30.638 61.1196 31.5882L63.1139 31.4368ZM62.7571 36.283C62.9906 35.4013 63.1354 34.7629 63.1879 34.0367C63.2393 33.3248 63.1993 32.5627 63.1139 31.4368L61.1196 31.5882C61.2056 32.7205 61.2326 33.3463 61.1931 33.8925C61.1547 34.4243 61.0506 34.9141 60.8238 35.7711L62.7571 36.283ZM59.0119 43.1799C60.6634 41.4577 62.087 38.8135 62.7571 36.283L60.8238 35.7711C60.2294 38.0155 58.9573 40.3473 57.5685 41.7955L59.0119 43.1799ZM55.6683 45.8632C56.8262 45.0915 58.3199 43.9013 59.0119 43.1799L57.5685 41.7955C57.014 42.3736 55.6494 43.4723 54.5591 44.1989L55.6683 45.8632ZM49.2608 54.0748C50.171 50.9233 52.3669 48.064 55.6684 45.8631L54.559 44.199C50.9348 46.615 48.4024 49.839 47.3394 53.5198L49.2608 54.0748ZM51.7834 66.4715C48.9389 62.9914 47.984 58.4965 49.2609 54.0747L47.3394 53.5199C45.8794 58.5758 46.9764 63.7506 50.2349 67.7372L51.7834 66.4715ZM46.9827 66.7097C48.4381 67.4096 49.5905 67.8517 50.8217 68.0867L51.1966 66.1221C50.2081 65.9335 49.233 65.5726 47.8495 64.9073L46.9827 66.7097ZM42.9688 63.9769C43.6147 64.6201 44.0946 65.065 44.6967 65.4738C45.2868 65.8745 45.9662 66.2209 46.9827 66.7097L47.8495 64.9073C46.8271 64.4157 46.2725 64.1263 45.82 63.8191C45.3794 63.52 45.0079 63.185 44.3801 62.5597L42.9688 63.9769ZM38.876 57.2809C39.5397 59.5737 41.1149 62.1303 42.9687 63.9768L44.3802 62.5598C42.7362 60.9223 41.3554 58.6535 40.7972 56.7248L38.876 57.2809ZM38.227 53.0403C38.3155 54.43 38.5981 56.3203 38.876 57.2808L40.7972 56.7249C40.5744 55.9549 40.3063 54.222 40.223 52.9132L38.227 53.0403ZM34.3283 43.378C36.5987 45.7427 37.9742 49.0765 38.227 53.0404L40.223 52.913C39.9455 48.563 38.4233 44.7552 35.771 41.9928L34.3283 43.378ZM23.5384 39.2238C27.5494 38.9119 31.4263 40.3558 34.3283 43.378L35.7709 41.9928C32.4555 38.5401 27.9928 36.8713 23.3833 37.2299L23.5384 39.2238ZM45.6764 20.1416C46.2276 19.6134 46.9031 19.2933 47.615 19.1692L47.2713 17.1989C46.194 17.3868 45.1491 17.877 44.2927 18.6974L45.6764 20.1416ZM44.6192 23.2777C44.558 22.8232 44.6329 22.2038 44.8454 21.5786C45.0586 20.951 45.3706 20.4346 45.6764 20.1416L44.2927 18.6975C43.6859 19.2789 43.2322 20.1097 42.9517 20.9351C42.6704 21.7629 42.5235 22.7021 42.6372 23.5449L44.6192 23.2777ZM51.2686 25.2676C49.2095 27.7899 45.0712 26.6299 44.6192 23.2777L42.6372 23.5449C43.3119 28.5499 49.6004 30.4737 52.8179 26.5324L51.2686 25.2676ZM51.7178 21.1265C52.4222 22.5286 52.2541 24.0603 51.2686 25.2676L52.8179 26.5324C54.3046 24.7112 54.5616 22.3321 53.505 20.2287L51.7178 21.1265ZM49.3383 19.2442C50.3533 19.5113 51.2332 20.162 51.7178 21.1266L53.5049 20.2287C52.7357 18.6976 51.3564 17.7072 49.8473 17.3101L49.3383 19.2442ZM47.4719 19.1836C48.1497 19.1641 48.8194 19.1936 49.4768 19.2704L49.7088 17.2839C48.9545 17.1958 48.188 17.1622 47.4143 17.1844L47.4719 19.1836ZM26.6366 56.0286C26.2746 56.3086 25.7017 56.5531 25.0552 56.6814C24.4062 56.8102 23.8039 56.7979 23.398 56.6794L22.8373 58.5992C23.644 58.8348 24.5899 58.8128 25.4444 58.6432C26.3015 58.4731 27.1877 58.1308 27.8603 57.6105L26.6366 56.0286ZM25.0323 49.2652C28.2439 49.7896 29.3099 53.9607 26.6366 56.0286L27.8603 57.6105C31.852 54.5228 30.3718 48.1106 25.3546 47.2914L25.0323 49.2652ZM21.2286 50.9453C22.0888 49.6339 23.4966 49.0145 25.0323 49.2652L25.3546 47.2914C23.0348 46.9126 20.8474 47.88 19.5563 49.8483L21.2286 50.9453ZM23.398 56.6794C20.9913 55.9764 19.8878 52.9894 21.2286 50.9453L19.5562 49.8484C17.4617 53.0417 19.1701 57.5281 22.8373 58.5992L23.398 56.6794ZM64.0457 54.4198C64.4688 54.5937 64.9668 54.9681 65.4013 55.4648C65.8373 55.9634 66.1281 56.4921 66.2287 56.9041L68.1716 56.4296C67.9722 55.613 67.4805 54.8042 66.9067 54.1482C66.3313 53.4903 65.5922 52.893 64.8058 52.5699L64.0457 54.4198ZM59.001 59.1937C57.8468 56.1412 60.9259 53.1379 64.0457 54.4198L64.8058 52.5699C60.1339 50.6502 55.3323 55.1463 57.1303 59.9011L59.001 59.1937ZM62.3562 61.6529C60.7929 61.5627 59.5526 60.6522 59.001 59.1937L57.1303 59.9011C57.9621 62.1005 59.8918 63.514 62.241 63.6496L62.3562 61.6529ZM66.2287 56.904C66.8249 59.3458 64.7906 61.7932 62.3561 61.6529L62.241 63.6496C66.0542 63.8693 69.078 60.1417 68.1716 56.4297L66.2287 56.904Z" fill="#050625"/>
<path d="M45.198 86.8082C68.2906 86.8082 87.0054 68.0651 87.0054 44.951C87.0054 21.8369 68.2906 3.09375 45.198 3.09375C22.1054 3.09375 3.39062 21.8369 3.39062 44.951C3.39062 68.0651 22.1054 86.8082 45.198 86.8082Z" stroke="#5A86F0" stroke-width="5"/>
</svg>
