<svg width="650" height="400" viewBox="0 0 650 400" fill="none" xmlns="http://www.w3.org/2000/svg">
<rect width="650" height="400" rx="20" fill="#06071F"/>
<circle cx="167" cy="200" r="65" fill="#06071F"/>
<path fill-rule="evenodd" clip-rule="evenodd" d="M167 135C131.101 135 102 164.101 102 200C102 235.899 131.101 265 167 265C202.899 265 232 235.899 232 200C232 164.101 202.899 135 167 135ZM225.252 211.643C222.531 225.154 215.272 237.234 204.633 245.952C196.159 252.891 186.198 257.27 175.398 258.823C172.244 259.275 170.615 259.388 166.924 259.388C163.243 259.388 161.633 259.275 158.451 258.823C149.788 257.599 141.484 254.445 134.159 249.606C122.362 241.81 113.652 229.993 109.773 216.511C108.304 211.407 107.598 206.766 107.457 201.258C107.391 198.782 107.514 196.983 107.9 194.761C109.792 183.839 117.447 174.961 127.898 171.562C130.901 170.592 133.613 170.168 136.889 170.159C141.719 170.149 145.947 171.138 150.184 173.257C159.251 177.804 165.399 186.768 166.35 196.833C166.406 197.426 166.491 198.998 166.548 200.316C166.595 201.634 166.698 203.197 166.783 203.781C167.696 210.673 170.832 216.934 175.784 221.736C180.577 226.378 186.311 229.137 193.193 230.088C194.596 230.276 199.436 230.248 200.867 230.04C206.892 229.146 211.892 226.915 216.449 223.092C220.187 219.957 223.134 215.852 225.026 211.153C225.328 210.4 225.582 209.835 225.582 209.901C225.582 209.967 225.431 210.748 225.252 211.643ZM206.384 202.293C206.036 203.612 205.716 204.327 204.981 205.438C203.927 207.039 202.486 208.216 200.631 208.997C199.596 209.44 198.918 209.609 197.76 209.722C194.765 209.995 191.931 208.95 189.841 206.794C187.789 204.685 186.847 202.049 187.092 199.055C187.412 195.015 190.331 191.579 194.37 190.458C195.217 190.223 195.462 190.195 196.818 190.204C198.042 190.204 198.475 190.242 199.125 190.402C202.834 191.343 205.659 194.243 206.459 197.962C206.714 199.13 206.676 201.201 206.384 202.293ZM146.296 198.471C144.93 191.965 137.709 188.472 131.758 191.447C130.77 191.936 130.054 192.454 129.197 193.283C125.657 196.71 125.083 202.096 127.813 206.248C128.435 207.199 129.696 208.451 130.694 209.11C133.679 211.078 137.634 211.332 140.797 209.75C143.763 208.282 145.806 205.542 146.39 202.256C146.55 201.361 146.503 199.45 146.296 198.471Z" fill="#5A86F0"/>
<path d="M300.477 190H294.136C293.761 188.176 293.105 186.574 292.168 185.193C291.247 183.812 290.122 182.653 288.793 181.716C287.48 180.761 286.023 180.045 284.42 179.568C282.818 179.091 281.148 178.852 279.409 178.852C276.239 178.852 273.366 179.653 270.793 181.256C268.236 182.858 266.199 185.219 264.682 188.338C263.182 191.457 262.432 195.284 262.432 199.818C262.432 204.352 263.182 208.179 264.682 211.298C266.199 214.418 268.236 216.778 270.793 218.381C273.366 219.983 276.239 220.784 279.409 220.784C281.148 220.784 282.818 220.545 284.42 220.068C286.023 219.591 287.48 218.884 288.793 217.946C290.122 216.991 291.247 215.824 292.168 214.443C293.105 213.045 293.761 211.443 294.136 209.636H300.477C300 212.312 299.131 214.707 297.869 216.821C296.608 218.935 295.04 220.733 293.165 222.216C291.29 223.682 289.185 224.798 286.849 225.565C284.531 226.332 282.051 226.716 279.409 226.716C274.943 226.716 270.972 225.625 267.494 223.443C264.017 221.261 261.281 218.159 259.287 214.136C257.293 210.114 256.295 205.341 256.295 199.818C256.295 194.295 257.293 189.523 259.287 185.5C261.281 181.477 264.017 178.375 267.494 176.193C270.972 174.011 274.943 172.92 279.409 172.92C282.051 172.92 284.531 173.304 286.849 174.071C289.185 174.838 291.29 175.963 293.165 177.446C295.04 178.912 296.608 180.702 297.869 182.815C299.131 184.912 300 187.307 300.477 190ZM310.724 226V173.636H317.065V196.955H344.985V173.636H351.326V226H344.985V202.58H317.065V226H310.724ZM366.168 226H359.521L378.748 173.636H385.293L404.521 226H397.873L382.225 181.92H381.816L366.168 226ZM368.623 205.545H395.418V211.17H368.623V205.545ZM412.677 226V173.636H419.018V199.614H419.631L443.154 173.636H451.438L429.45 197.261L451.438 226H443.768L425.563 201.659L419.018 209.023V226H412.677ZM459.646 226V173.636H477.339C481.43 173.636 484.788 174.335 487.413 175.733C490.038 177.114 491.981 179.014 493.242 181.435C494.504 183.855 495.134 186.608 495.134 189.693C495.134 192.778 494.504 195.514 493.242 197.901C491.981 200.287 490.046 202.162 487.438 203.526C484.83 204.872 481.498 205.545 477.441 205.545H463.123V199.818H477.237C480.032 199.818 482.282 199.409 483.987 198.591C485.708 197.773 486.952 196.614 487.719 195.114C488.504 193.597 488.896 191.79 488.896 189.693C488.896 187.597 488.504 185.764 487.719 184.196C486.935 182.628 485.683 181.418 483.961 180.565C482.239 179.696 479.964 179.261 477.134 179.261H465.987V226H459.646ZM484.293 202.477L497.18 226H489.816L477.134 202.477H484.293ZM507.848 226H501.2L520.428 173.636H526.973L546.2 226H539.553L523.905 181.92H523.496L507.848 226ZM510.303 205.545H537.098V211.17H510.303V205.545Z" fill="#5A86F0"/>
</svg>
