<svg width="309" height="667" viewBox="0 0 309 667" fill="none" xmlns="http://www.w3.org/2000/svg">
<path fill-rule="evenodd" clip-rule="evenodd" d="M0.641022 332.949C0.641022 240.13 0.641022 147.312 0.642012 54.4921C0.642012 47.5243 0.57172 40.5496 1.43205 33.6165C2.51216 24.9102 5.47728 17.0534 11.8976 10.7826C17.4209 5.38602 24.1738 2.53674 31.6683 1.25367C35.4967 0.597287 39.3608 0.30028 43.2486 0.234939C51.0084 0.104256 58.7662 0.0735653 66.5279 0.186428C69.5723 0.229989 71.4523 2.33972 71.58 4.991C71.685 7.19083 71.7424 9.39858 72.2067 11.5935C73.7046 18.6751 79.7586 24.3202 87.2224 25.0647C89.4351 25.2855 91.6428 25.3815 93.8595 25.3815C134.488 25.3825 175.116 25.3815 215.744 25.3775C218.831 25.3775 221.912 25.3379 224.926 24.5241C232.332 22.5263 237.235 15.9743 237.603 8.2957C237.67 6.87303 237.73 5.44146 237.943 4.03563C238.266 1.90709 239.774 0.523035 241.901 0.28048C242.766 0.181478 243.639 0.122076 244.509 0.119106C252.903 0.0963358 261.303 -0.0501874 269.689 0.360672C276.363 0.687379 282.93 1.74373 288.979 4.79498C298.817 9.75598 304.593 17.8573 307.028 28.4911C308.256 33.8521 308.508 39.3052 308.631 44.7691C308.707 48.1728 308.712 51.5794 308.712 54.9851C308.719 241.02 308.722 427.054 308.723 613.089C308.723 619.583 308.737 626.08 307.932 632.539C306.845 641.244 303.878 649.105 297.46 655.371C292.312 660.396 286.056 663.248 279.082 664.63C273.076 665.821 266.98 666.041 260.88 666.05C242.11 666.076 223.34 666.068 204.571 666.069C153.647 666.07 102.723 666.067 51.7984 666.072C45.5405 666.073 39.2826 666.012 33.0751 665.116C23.4125 663.72 15.0409 659.892 8.90077 651.993C5.12582 647.137 2.9943 641.57 1.90924 635.57C0.662802 628.676 0.665772 621.7 0.662802 614.732C0.643002 576.638 0.650922 538.545 0.650922 500.45C0.649932 444.617 0.650922 388.782 0.650922 332.949H0.641022Z" fill="black"/>
</svg>
