<svg width="81" height="82" viewBox="0 0 81 82" fill="none" xmlns="http://www.w3.org/2000/svg">
<circle cx="41" cy="42" r="40" fill="#5A86F0" fill-opacity="0.3"/>
<mask id="path-2-outside-1_1006_7440" maskUnits="userSpaceOnUse" x="0" y="0" width="68" height="45" fill="black">
<rect fill="white" width="68" height="45"/>
<path d="M3.17926 28.9773C5.23438 23.0088 8.67289 17.6114 13.2136 13.2264C17.7544 8.84146 23.2685 5.5934 29.3051 3.74782C35.3417 1.90225 41.7293 1.51155 47.9458 2.60768C54.1624 3.7038 60.0312 6.25563 65.0725 10.0545L41 42L3.17926 28.9773Z"/>
</mask>
<path d="M3.17926 28.9773C5.23438 23.0088 8.67289 17.6114 13.2136 13.2264C17.7544 8.84146 23.2685 5.5934 29.3051 3.74782C35.3417 1.90225 41.7293 1.51155 47.9458 2.60768C54.1624 3.7038 60.0312 6.25563 65.0725 10.0545L41 42L3.17926 28.9773Z" fill="#9DEAC9"/>
<path d="M3.17926 28.9773C5.23438 23.0088 8.67289 17.6114 13.2136 13.2264C17.7544 8.84146 23.2685 5.5934 29.3051 3.74782C35.3417 1.90225 41.7293 1.51155 47.9458 2.60768C54.1624 3.7038 60.0312 6.25563 65.0725 10.0545L41 42L3.17926 28.9773Z" stroke="#F1F1F5" stroke-width="4" mask="url(#path-2-outside-1_1006_7440)"/>
</svg>
