<svg width="80" height="82" viewBox="0 0 80 82" fill="none" xmlns="http://www.w3.org/2000/svg">
<circle cx="40" cy="40" r="40" fill="#5A86F0" fill-opacity="0.3"/>
<mask id="path-2-outside-1_1006_7437" maskUnits="userSpaceOnUse" x="25" y="36" width="47" height="46" fill="black">
<rect fill="white" x="25" y="36" width="47" height="46"/>
<path d="M68.7736 67.7863C63.5602 73.185 56.9331 77.0081 49.6497 78.8186C42.3664 80.6291 34.7206 80.3541 27.5861 78.0249L40 40L68.7736 67.7863Z"/>
</mask>
<path d="M68.7736 67.7863C63.5602 73.185 56.9331 77.0081 49.6497 78.8186C42.3664 80.6291 34.7206 80.3541 27.5861 78.0249L40 40L68.7736 67.7863Z" fill="#D53F8C"/>
<path d="M68.7736 67.7863C63.5602 73.185 56.9331 77.0081 49.6497 78.8186C42.3664 80.6291 34.7206 80.3541 27.5861 78.0249L40 40L68.7736 67.7863Z" stroke="#F1F1F5" stroke-width="4" mask="url(#path-2-outside-1_1006_7437)"/>
</svg>
