<svg width="82" height="80" viewBox="0 0 82 80" fill="none" xmlns="http://www.w3.org/2000/svg">
<circle cx="42" cy="40" r="40" fill="#5A86F0" fill-opacity="0.3"/>
<mask id="path-2-outside-1_1006_7441" maskUnits="userSpaceOnUse" x="0" y="15" width="46" height="49" fill="black">
<rect fill="white" y="15" width="46" height="49"/>
<path d="M8.07807 61.1968C4.05574 54.7597 1.94798 47.311 2.00097 39.7207C2.05397 32.1305 4.26552 24.712 8.37734 18.3317L42 40L8.07807 61.1968Z"/>
</mask>
<path d="M8.07807 61.1968C4.05574 54.7597 1.94798 47.311 2.00097 39.7207C2.05397 32.1305 4.26552 24.712 8.37734 18.3317L42 40L8.07807 61.1968Z" fill="#A5A5F7"/>
<path d="M8.07807 61.1968C4.05574 54.7597 1.94798 47.311 2.00097 39.7207C2.05397 32.1305 4.26552 24.712 8.37734 18.3317L42 40L8.07807 61.1968Z" stroke="#F1F1F5" stroke-width="4" mask="url(#path-2-outside-1_1006_7441)"/>
</svg>
