<svg width="80" height="82" viewBox="0 0 80 82" fill="none" xmlns="http://www.w3.org/2000/svg">
<circle cx="40" cy="40" r="40" fill="#5A86F0" fill-opacity="0.3"/>
<mask id="path-2-outside-1_1006_7438" maskUnits="userSpaceOnUse" x="2" y="36" width="42" height="46" fill="black">
<rect fill="white" x="2" y="36" width="42" height="46"/>
<path d="M29.6472 78.637C24.369 77.2227 19.4365 74.7419 15.1541 71.3477C10.8716 67.9535 7.33007 63.7178 4.74785 58.902L40 40L29.6472 78.637Z"/>
</mask>
<path d="M29.6472 78.637C24.369 77.2227 19.4365 74.7419 15.1541 71.3477C10.8716 67.9535 7.33007 63.7178 4.74785 58.902L40 40L29.6472 78.637Z" fill="#50EFED"/>
<path d="M29.6472 78.637C24.369 77.2227 19.4365 74.7419 15.1541 71.3477C10.8716 67.9535 7.33007 63.7178 4.74785 58.902L40 40L29.6472 78.637Z" stroke="#F1F1F5" stroke-width="4" mask="url(#path-2-outside-1_1006_7438)"/>
</svg>
