<?xml version="1.0" standalone="no"?>
<!DOCTYPE svg PUBLIC "-//W3C//DTD SVG 20010904//EN"
 "http://www.w3.org/TR/2001/REC-SVG-20010904/DTD/svg10.dtd">
<svg version="1.0" xmlns="http://www.w3.org/2000/svg"
 width="700.000000pt" height="700.000000pt" viewBox="0 0 700.000000 700.000000"
 preserveAspectRatio="xMidYMid meet">
<metadata>
Created by potrace 1.14, written by Peter Selinger 2001-2017
</metadata>
<g transform="translate(0.000000,700.000000) scale(0.100000,-0.100000)"
fill="#000000" stroke="none">
<path d="M1715 5100 c-466 -50 -890 -307 -1147 -695 -113 -170 -203 -384 -242
-575 -55 -270 -40 -638 39 -1008 234 -1087 1034 -1986 2090 -2348 311 -107
608 -161 945 -171 540 -16 1053 97 1530 336 762 383 1334 1044 1605 1856 51
152 120 426 113 447 -2 5 -18 -26 -36 -69 -79 -192 -199 -369 -352 -523 -232
-232 -522 -386 -845 -450 -161 -32 -466 -32 -615 -1 -520 109 -936 431 -1160
896 -106 219 -144 387 -165 713 -8 125 -21 265 -30 311 -33 171 -113 377 -205
526 -154 250 -410 483 -666 605 -116 56 -299 115 -414 134 -116 20 -337 28
-445 16z m287 -1106 c176 -52 320 -196 372 -373 21 -72 21 -230 0 -302 -25
-86 -74 -169 -139 -235 -176 -178 -436 -213 -665 -88 -68 37 -171 146 -209
222 -104 206 -72 450 82 618 143 156 357 217 559 158z"/>
<path d="M4990 4020 c-145 -35 -290 -151 -359 -287 -70 -140 -67 -323 7 -473
38 -78 151 -189 232 -229 156 -75 314 -76 465 -2 44 22 99 56 122 76 56 47
126 155 152 232 29 85 29 235 1 325 -52 168 -200 307 -377 353 -61 16 -185 18
-243 5z"/>
</g>
</svg>
