<svg width="83" height="82" viewBox="0 0 83 82" fill="none" xmlns="http://www.w3.org/2000/svg">
<circle cx="43" cy="42" r="40" fill="#5A86F0" fill-opacity="0.3"/>
<mask id="path-2-outside-1_1006_7518" maskUnits="userSpaceOnUse" x="0" y="0" width="46" height="45" fill="black">
<rect fill="white" width="46" height="45"/>
<path d="M3.05482 39.9066C3.49691 31.4709 6.5982 23.3918 11.9142 16.8271C17.2302 10.2624 24.488 5.5492 32.6474 3.36293L43 42L3.05482 39.9066Z"/>
</mask>
<path d="M3.05482 39.9066C3.49691 31.4709 6.5982 23.3918 11.9142 16.8271C17.2302 10.2624 24.488 5.5492 32.6474 3.36293L43 42L3.05482 39.9066Z" fill="#9DEAC9"/>
<path d="M3.05482 39.9066C3.49691 31.4709 6.5982 23.3918 11.9142 16.8271C17.2302 10.2624 24.488 5.5492 32.6474 3.36293L43 42L3.05482 39.9066Z" stroke="#F1F1F5" stroke-width="4" mask="url(#path-2-outside-1_1006_7518)"/>
</svg>
