<svg width="82" height="80" viewBox="0 0 82 80" fill="none" xmlns="http://www.w3.org/2000/svg">
<circle cx="40" cy="40" r="40" fill="#5A86F0" fill-opacity="0.3"/>
<mask id="path-2-outside-1_1006_7516" maskUnits="userSpaceOnUse" x="36" y="1" width="46" height="42" fill="black">
<rect fill="white" x="36" y="1" width="46" height="42"/>
<path d="M56.9047 3.7477C63.0111 6.59512 68.2992 10.9388 72.2784 16.3758C76.2577 21.8127 78.7991 28.1667 79.6668 34.8482L40 40L56.9047 3.7477Z"/>
</mask>
<path d="M56.9047 3.7477C63.0111 6.59512 68.2992 10.9388 72.2784 16.3758C76.2577 21.8127 78.7991 28.1667 79.6668 34.8482L40 40L56.9047 3.7477Z" fill="#50EFED"/>
<path d="M56.9047 3.7477C63.0111 6.59512 68.2992 10.9388 72.2784 16.3758C76.2577 21.8127 78.7991 28.1667 79.6668 34.8482L40 40L56.9047 3.7477Z" stroke="#F1F1F5" stroke-width="4" mask="url(#path-2-outside-1_1006_7516)"/>
</svg>
